<?xml version="1.0" encoding="UTF-8" standalone="no"?>
<svg
   viewBox="0 0 999.22486 902.3582"
   version="1.1"
   id="svg394"
   sodipodi:docname="tink_logo_coloronly.svg"
   inkscape:version="1.1.1 (3bf5ae0d25, 2021-09-20)"
   width="999.22485"
   height="902.35822"
   xmlns:inkscape="http://www.inkscape.org/namespaces/inkscape"
   xmlns:sodipodi="http://sodipodi.sourceforge.net/DTD/sodipodi-0.dtd"
   xmlns="http://www.w3.org/2000/svg"
   xmlns:svg="http://www.w3.org/2000/svg">
  <sodipodi:namedview
     id="namedview396"
     pagecolor="#ffffff"
     bordercolor="#666666"
     borderopacity="1.0"
     inkscape:pageshadow="2"
     inkscape:pageopacity="0.0"
     inkscape:pagecheckerboard="0"
     showgrid="false"
     inkscape:zoom="0.39599363"
     inkscape:cx="806.83117"
     inkscape:cy="204.54875"
     inkscape:window-width="1920"
     inkscape:window-height="979"
     inkscape:window-x="0"
     inkscape:window-y="32"
     inkscape:window-maximized="1"
     inkscape:current-layer="Layer_1" />
  <defs
     id="defs37">
    <style
       id="style2">.cls-1,.cls-8{fill:#cdc6cd;}.cls-1,.cls-11,.cls-6{stroke:#38383f;}.cls-1,.cls-11,.cls-21,.cls-6{stroke-linecap:round;}.cls-1,.cls-11,.cls-21,.cls-3,.cls-31,.cls-33,.cls-34,.cls-6{stroke-linejoin:round;}.cls-1,.cls-11,.cls-21,.cls-33,.cls-34{stroke-width:6.49px;}.cls-2{fill:#d7d8dd;}.cls-27,.cls-3{fill:#fbb03b;}.cls-3,.cls-31,.cls-33,.cls-34{stroke:#38220f;}.cls-3,.cls-31{stroke-width:6.52px;}.cls-4{fill:#b7cad8;}.cls-5{fill:#df6388;}.cls-6{fill:#9091a5;stroke-width:7px;}.cls-7{fill:#38383f;}.cls-9{clip-path:url(#clip-path);}.cls-10{fill:#dfe3ec;}.cls-11,.cls-21,.cls-31,.cls-34{fill:none;}.cls-12{clip-path:url(#clip-path-2);}.cls-13{clip-path:url(#clip-path-3);}.cls-14{fill:#9495a9;}.cls-15{clip-path:url(#clip-path-4);}.cls-16{clip-path:url(#clip-path-5);}.cls-17{fill:#9394a8;}.cls-18{fill:#908da2;}.cls-19{clip-path:url(#clip-path-6);}.cls-20{fill:#662955;}.cls-21{stroke:#230e1e;}.cls-22{fill:#230e1e;}.cls-23{clip-path:url(#clip-path-7);}.cls-24{clip-path:url(#clip-path-8);}.cls-25{clip-path:url(#clip-path-9);}.cls-26{clip-path:url(#clip-path-10);}.cls-28{clip-path:url(#clip-path-11);}.cls-29{fill:#d89500;}.cls-30{fill:#f9d5a5;}.cls-32{fill:#fff;}.cls-33{fill:#513315;}.cls-35{fill:#ffe581;}</style>
    <clipPath
       id="clip-path"
       transform="translate(43.04 -2.27)">
      <path
         class="cls-1"
         d="m 560.64,183.21 c 0,0 -23.21,-49.46 -21.55,-69.63 1.66,-20.17 11,-29.57 10.22,-35.37 -0.78,-5.8 -9.67,-4.7 -14.37,0.55 -4.7,5.25 -20.72,17.41 -23.48,50.84 -2.76,33.43 14.09,71.57 14.09,71.57 z"
         id="path4" />
    </clipPath>
    <clipPath
       id="clip-path-2"
       transform="translate(43.04 -2.27)">
      <path
         class="cls-2"
         d="m 501.79,481.33 -47.25,9.67 -4.14,2.76 c 0,0 5,13.26 11.32,15.47 6.32,2.21 39.51,4.15 39.51,4.15 0,0 -12.43,16 -13.81,22.1 -1.38,6.1 -4.7,22.66 0,26 4.7,3.34 48.9,-19.06 50.29,-18 1.39,1.06 0.55,34 9.39,42.28 8.84,8.28 13.82,11.32 22.66,-4.42 8.84,-15.74 10.57,-19.14 12.78,-19.76 2.21,-0.62 9.67,2.69 12,7.46 2.33,4.77 31.86,39.67 36.46,47.96 4.6,8.29 28.6,54.43 19.89,115.91 -8.71,61.48 -147.4,131.65 -147.4,131.65 l -16.31,72.53 c 0,0 63.69,-34.54 115.91,-27.35 52.22,7.19 187.89,-122.4 187.89,-122.4 l 42,-82.34 c 0,0 -6.35,-39.51 3.73,-49.32 0,0 12,16.16 17.83,14.64 5.83,-1.52 -1.25,-23.62 -1.25,-23.62 0,0 -20.72,-56 -17,-58.3 0,0 17.27,4.28 20.31,-6.49 0,0 -52.22,-46.28 -42.28,-67.42 0,0 30.12,23.62 33.57,21.83 3.45,-1.79 9,-18.65 -17.13,-60 l 5.53,-1 c 0,0 17.54,5.39 20,-1.1 2.46,-6.49 -23.62,-32.47 -44.21,-41.17 -20.59,-8.7 -310.29,48.28 -310.29,48.28 z"
         id="path7" />
    </clipPath>
    <clipPath
       id="clip-path-3"
       transform="translate(43.04 -2.27)">
      <path
         class="cls-4"
         d="m 406.33,403.68 -13.68,11.88 -7.46,-15.56 -2.9,-15 3.31,-34.4 8.29,-6.22 12,-2.07 14.51,-7.88 19.48,-2.9 1.24,-22.79 3.11,-39.53 15.68,-26 33.43,-35.22 37.72,-21.14 39.81,-12.48 43.82,-0.33 44.85,10.32 27.35,10.36 26.11,18.28 21.14,18.24 23.21,28.18 14.92,27.77 12.43,31.49 5,23.63 -1.66,17 18.66,5.39 -9.55,18.3 -22,20.73 17.82,-0.83 26.52,-2.9 13.27,2.48 -2.49,8.71 -24.87,33.15 -22.79,12.85 -30.26,9.53 -11.19,1.66 -12,14.09 -22,15.34 -41,14.09 c 0,0 -34.82,2.49 -36.06,2.9 -1.24,0.41 -36.47,-5.8 -36.47,-5.8 l -51,-14.51 -34.4,-11.6 -15.23,-8.34 -16.17,-10.36 -4.14,9.53 -5.29,-1 -16.68,-17 -2,2.49 -1.14,17 -4.76,-3.42 -23.94,-29 -3.21,-36.89 z"
         id="path10" />
    </clipPath>
    <clipPath
       id="clip-path-4"
       transform="translate(43.04 -2.27)">
      <path
         class="cls-2"
         d="m 188.46,438.23 c -0.27,-1 -16.58,-25.56 -21.27,-31.36 -4.69,-5.8 -33,-30.53 -42.28,-22.24 -9.28,8.29 1.45,16.92 1.45,16.92 0,0 -67.9,2.56 -70.52,5.6 -2.62,3.04 -1.66,12.16 1.93,16.58 3.59,4.42 49.46,22.38 50,23.48 0.54,1.1 -9.12,13.4 -5.39,17.41 3.73,4.01 29.43,2.62 38.82,1.1 9.39,-1.52 46.57,-10.72 46.57,-10.72 z"
         id="path13" />
    </clipPath>
    <clipPath
       id="clip-path-5"
       transform="translate(43.04 -2.27)">
      <path
         class="cls-4"
         d="m 136.52,426.83 -3.59,4.22 3,5.25 35.64,10.77 37.85,17.69 23.58,19.89 12.43,22.93 8.29,25.35 -17.41,17.48 -153.95,91.73 c 0,0 -40.61,28.46 -48.9,55.54 -8.29,27.08 -18.46,66.59 23.76,114.39 42.22,47.8 145.89,80.4 145.89,80.4 0,0 69.62,8.57 85.1,4.42 15.48,-4.15 16.85,0.28 16.85,0.28 l 19.07,25.14 c 0,0 19.06,17.41 28.73,19.34 9.67,1.93 35.64,-0.55 48.35,-7.46 0,0 28.74,23.21 39,24.59 10.26,1.38 22.38,1.11 29,-3.87 6.62,-4.98 21.28,-19.61 21.28,-19.61 l 25.14,-36.75 21.28,-30.12 27.9,24.87 27.36,37.58 c 0,0 2.21,27.07 5.8,32.6 a 37,37 0 0 0 6.63,8 l 26.53,-19.62 3.86,-0.55 c 0,0 11.33,15.75 20.45,17.13 9.12,1.38 23.21,1.66 24.59,0.28 1.38,-1.38 -0.27,-22.11 -0.27,-22.11 l 5.8,-0.82 c 0,0 28.18,-1.39 30.67,-4.15 a 45.23,45.23 0 0 0 4.69,-6.63 l 32.33,5.25 5.25,-5 -3.31,-8.57 5.24,-3.31 27.91,2.48 a 34,34 0 0 0 14.92,-9.12 c 6.91,-7.18 41.17,-43.93 41.17,-43.93 0,0 23.49,-23.21 34.54,-25.14 11.05,-1.93 47,-14.64 47,-14.64 l -5.59,-9.03 -28.46,-8.84 3,-2.21 26,-5.25 -1.11,-5.25 -19.89,-11.06 -20.73,-1.65 14.1,-14.92 8.84,-5 -2.49,-5.52 -24.87,1.93 -21.25,8.77 -2.21,-7.18 2.76,-19.07 c 0,0 -10,-27.63 -18.51,-34 -8.51,-6.37 -21,-14.09 -21,-14.09 l -31.5,60.51 c 0,0 -29.84,45.31 -42.83,58 -12.99,12.69 -66,51.12 -66,51.12 0,0 -9.67,-31.5 -9.67,-33.71 0,-2.21 -12.16,-75.43 -12.16,-83.45 0,-8.02 2.21,-68 0.83,-80.12 -1.38,-12.12 -15.75,-53.33 -26.8,-65.21 -11.05,-11.88 -30.67,-40.06 -31.5,-43.1 -0.83,-3.04 -12.16,-3.87 -12.16,-3.87 0,0 -18.54,30.17 -20.47,30.17 -1.93,0 -11.33,0.82 -11.33,0.82 l -8.84,-23.48 -2.77,-26.25 c 0,0 -33.7,16.86 -39.78,18.79 -6.08,1.93 -13.27,0.55 -13.54,-1.93 -0.27,-2.48 -0.55,-16.86 -0.55,-16.86 l -12.44,10.81 -23.76,48.63 -8.57,1.65 -28.18,21.82 -11.6,12.16 c 0,0 -15.48,-16.58 -23.21,-19.9 -7.73,-3.32 -21.55,-14.92 -45.87,-1.1 -24.32,13.82 -51.11,61.89 -57.19,78.75 -6.08,16.86 -8.84,48.09 -8.84,48.09 l -3.6,5.53 c 0,0 -70.45,-5.8 -94.49,-24 -30.55,-23.18 -32,-22 3.32,-57.47 25.32,-25.4 101.67,-95.88 101.67,-95.88 0,0 19.62,-35.09 -3.31,-72.39 -22.93,-37.3 -63.83,-58.62 -96.42,-64.7 -32.59,-6.08 -36.47,-7.26 -36.47,-7.26"
         id="path16" />
    </clipPath>
    <clipPath
       id="clip-path-6"
       transform="translate(43.04 -2.27)">
      <polygon
         class="cls-5"
         points="394.72,427.46 377.52,436.78 379.39,441.96 395.55,447.76 406.32,446.52 424.15,435.33 438.86,421.03 444.87,411.91 417.1,405.49 "
         id="polygon19" />
    </clipPath>
    <clipPath
       id="clip-path-7"
       transform="translate(43.04 -2.27)">
      <path
         class="cls-1"
         d="m 507.59,255.74 c 0,0 13.54,0.13 22.93,-18.52 0,0 -7.73,-10.08 -17.54,-7.87 -9.81,2.21 -7.6,20.72 -5.39,26.39 z"
         id="path22" />
    </clipPath>
    <clipPath
       id="clip-path-8"
       transform="translate(43.04 -2.27)">
      <path
         class="cls-1"
         d="m 554.15,218.16 c 0,0 25.14,4.42 33,-12.57 0,0 -7.87,-13.27 -17.68,-12 -9.81,1.27 -15.32,24.57 -15.32,24.57 z"
         id="path25" />
    </clipPath>
    <clipPath
       id="clip-path-9"
       transform="translate(43.04 -2.27)">
      <path
         class="cls-1"
         d="m 608.72,195.09 c 0,0 5.11,13.54 14.64,16.71 9.53,3.17 37,4.58 47.25,-5.72 0,0 -4.15,-37.31 -14.92,-44 -9,-5.61 -15.12,-2.88 -20.52,0 -9.17,4.92 -26.45,33.01 -26.45,33.01 z"
         id="path28" />
    </clipPath>
    <clipPath
       id="clip-path-10"
       transform="translate(43.04 -2.27)">
      <path
         class="cls-1"
         d="m 684.42,221.89 c 0,0 12.71,33.71 51.67,23.76 0,0 37.3,-31.77 44.48,-72.67 7.18,-40.9 3.6,-66.86 -1.38,-73.22 -4.98,-6.36 -10.22,-1.65 -11.33,1.66 -1.11,3.31 -2.1,37.34 -27,71 0,0 -13.22,-14.48 -16.78,-22.27 -2.8,-6.11 -8.41,-2.8 -9.33,3.21 a 66.09,66.09 0 0 0 7.5,41.13 c 0,0 -26.5,22.15 -37.83,27.4 z"
         id="path31" />
    </clipPath>
    <clipPath
       id="clip-path-11"
       transform="translate(43.04 -2.27)">
      <path
         class="cls-3"
         d="m 429.26,169.12 c -10.69,-18.21 -26,-34.56 -45.54,-48.58 C 345.59,93.17 294.8,77.22 240.72,75.65 186.64,74.08 134.94,87 95.22,112.12 74.88,125 58.6,140.4 46.84,158 34,177.15 27.14,197.91 26.49,219.66 c -0.65,21.75 4.93,42.88 16.6,62.78 10.69,18.21 26.01,34.56 45.54,48.56 31.26,22.44 71,37.2 114.17,42.65 L 155,712 c -0.4,2.85 -2.21,2 -5.12,1.77 L 85,707.1 c -2.82,-0.22 -12.88,103.72 -12.88,103.72 14.14,2.9 68.17,9.23 68.17,9.23 -3.12,19.47 -15.4,96.56 -15.4,108.59 0,14.15 54.39,19.66 56.19,7.63 2.2,-14.73 3,-21.57 3,-21.63 l 80.92,9.76 7.72,-60.2 -19.91,-2.32 1.19,-17.23 22.12,1.5 2.76,-40.77 -38.38,-4.47 4.5,-66.33 59.08,5.72 8.39,-74.59 -86.34,-9.46 a 5.47,5.47 0 0 1 -4.83,-6.15 l 38.55,-274.68 c 43.67,-2.84 84.55,-15.28 117.3,-36 20.35,-12.86 36.63,-28.28 48.39,-45.85 12.85,-19.18 19.7,-39.94 20.35,-61.69 v 0 C 446.52,210.14 440.93,189 429.26,169.12 Z M 134,779.55 l -36,-2.34 2,-21.9 36.4,4.27 z M 372,231.07 c -1.54,51.14 -55.81,91.46 -138.75,89.05 -82.94,-2.41 -134.63,-48.41 -133.09,-99.55 1.5,-49.7 52,-89.24 131.9,-89.24 q 3.47,0 7,0.11 c 82.94,2.42 134.56,48.49 133.02,99.63 z"
         id="path34" />
    </clipPath>
  </defs>
  <g
     id="Layer_1"
     data-name="Layer 1"
     transform="translate(268.00738,-30.002768)">
    <path
       class="cls-6"
       d="m 295.5935,404.55082 c -1.29,1.22 -79.5,73.45 -79.5,73.45 0,0 -23.55,50 -41.43,50 -14.82,0 -37.87,-11.62 -40.43,-23.19 -4.43,-20 2.68,-39.06 22,-34.12 4.81,1.23 10.26,24.8 10.26,24.8 0,0 9.37,-31.5 -1.22,-40.34 -16.32,-13.6 -23.52,-9.18 -44.68,1.95 -20.4,10.73 -106.170001,109.93 -122.4000011,184.55 -16.2299999,74.62 -45.2999999,130.7 -7.92,235.28 0,0 1.33,-108 23.0000001,-114.3 21.67,-6.3 36.85,71 36.85,71 0,0 11.91,-72.15 25.25,-82.36 13.34,-10.21 32.000001,37.47 32.000001,37.47 0,0 2.69,-49.22 14.95,-72.6 12.26,-23.38 135.65,-134.21 178.95,-150.13 z"
       id="path39" />
    <path
       class="cls-7"
       d="m 67.103499,777.93082 c -25.52,-81.46 -16.2,-179.68 27.84,-253.2 a 282.43,282.43 0 0 1 21.090001,-30.71 1.6310886,1.6310886 0 0 1 2.63,1.93 348,348 0 0 0 -26.880001,48 c -0.52,1 -1.43,3.12 -1.86,4.18 -1.67,4.17 -3.72,8.49 -5.23,12.68 a 349.67,349.67 0 0 0 -11.29,34.72 c -14.51,56.09 -15,115.46 -4.16,172.28 0.57,3 1.21,6 1.93,9 a 2.1216091,2.1216091 0 0 1 -4.07,1.2 z"
       id="path41" />
    <path
       class="cls-7"
       d="m 104.0735,761.10082 c -17.380001,-75 -18.340001,-172.43 11.28,-244.26 a 1.55,1.55 0 0 1 2.93,1 c 0,0 -1.89,7.46 -1.89,7.46 -1.29,4.85 -2.41,10 -3.51,14.86 -3.11,14.7 -5.66,30.16 -7.3,45.09 -5.48,48 -4.56,96.52 -0.21,144.58 0.91,10.15 2,20.35 3.36,30.41 a 2.38,2.38 0 0 1 -4.66,0.89 z"
       id="path43" />
    <path
       class="cls-7"
       d="m 124.6535,687.73082 c -9.92,-39.62 -14.78,-99.47 0.14,-137.89 a 1.5590462,1.5590462 0 0 1 3,0.85 c -0.91,5.63 -1.63,11.24 -2.08,16.89 -2.25,28.33 -0.45,56.74 1.53,85.06 0,0 2.63,34.17 2.63,34.21 a 2.65,2.65 0 0 1 -5.19,0.88 z"
       id="path45" />
    <path
       class="cls-6"
       d="m 565.4035,372.61082 5.93,-1.55 c 0,0 27.66,-67.8 28,-71.73 0.34,-3.93 -10.74,-24.14 -18.74,-23.87 -8,0.27 -19.22,23.83 -19.22,23.83 0,0 -1.44,-30.83 6.08,-41.69 7.52,-10.86 47.59,15.93 58.79,26.64 11.2,10.71 94.55,91.26 100.67,174.49 6.12,83.23 -24.32,212.63 -41.76,248.33 0,0 3,-87.15 -7.47,-103.82 -10.47,-16.67 -52.38,65.29 -56.64,89.17 0,0 6,-60.78 -1.11,-69.38 -7.11,-8.6 -35.49,13.9 -50.76,39.72 l 2.63,-53.46 c 0,0 1.73,-91.49 -28.71,-143 l 0.56,-92.05 z"
       id="path47" />
    <path
       class="cls-7"
       d="m 612.6635,295.01082 c 19.45,27 34.78,56.7 47.24,87.48 20.4,51.45 31.72,107.63 25.45,163 -0.61,5.42 -1.8,13.52 -2.87,18.83 l -0.85,4.68 -1.04,4.62 -2.24,9.24 a 2.1830311,2.1830311 0 0 1 -4.25,-1 l 1.59,-9.21 c 1.16,-6 1.81,-12.48 2.58,-18.47 0.41,-5.48 1.17,-13.18 1.26,-18.58 0.36,-6.22 0.28,-14.67 0.24,-20.94 a 370.2,370.2 0 0 0 -11.51,-80.48 486.79,486.79 0 0 0 -59,-136.7 2.13,2.13 0 0 1 3.46,-2.47 z"
       id="path49" />
    <path
       class="cls-7"
       d="m 618.2635,606.38082 c 7.75,-28.27 10.83,-57.72 12.17,-87 2.29,-52.89 -3.18,-106 -13.44,-157.86 -1.94,-10.23 -5.18,-24.31 -7.53,-34.55 a 2.32,2.32 0 0 1 4.48,-1.18 c 1.59,5.71 3.19,11.43 4.67,17.18 20.11,79.59 26.9,166.88 8.54,247.42 -1.4,5.82 -2.92,11.53 -4.9,17.3 a 2.1124393,2.1124393 0 0 1 -4,-1.36 z"
       id="path51" />
    <path
       class="cls-7"
       d="m 580.7835,570.44082 c 6,-32.74 11.6,-65.56 15.85,-98.57 4,-32.89 7.39,-65.94 5.92,-99.08 a 1.78,1.78 0 0 1 1.69,-1.86 1.76,1.76 0 0 1 1.81,1.43 c 3.53,18.67 3.7,37.8 2.77,56.71 -1.18,23.05 -4.33,46 -8.3,68.67 a 699.06,699.06 0 0 1 -16.87,73.41 1.48,1.48 0 0 1 -2.87,-0.71 z"
       id="path53" />
    <path
       class="cls-8"
       d="m 309.2335,142.14082 c 0,0 -23.21,-49.459998 -21.55,-69.629998 1.66,-20.17 11,-29.57 10.22,-35.37 -0.78,-5.8 -9.67,-4.7 -14.37,0.55 -4.7,5.25 -20.72,17.41 -23.48,50.84 -2.76,33.429998 14.09,71.569998 14.09,71.569998 z"
       id="path55" />
    <g
       class="cls-9"
       clip-path="url(#clip-path)"
       id="g59"
       transform="translate(-294.4465,-38.799178)">
      <path
         class="cls-10"
         d="m 554.28,76.42 c 0,0 -11.6,5 -17,12.84 -5.4,7.84 -13.67,36.06 -10.77,52.64 2.9,16.58 14.09,48.9 14.09,48.9 l -47.25,15.75 -11.6,-99.88 37.71,-40.62 h 37.72 z"
         transform="translate(43.04,-2.27)"
         id="path57" />
    </g>
    <path
       class="cls-11"
       d="m 309.2335,142.14082 c 0,0 -23.21,-49.459998 -21.55,-69.629998 1.66,-20.17 11,-29.57 10.22,-35.37 -0.78,-5.8 -9.67,-4.7 -14.37,0.55 -4.7,5.25 -20.72,17.41 -23.48,50.84 -2.76,33.429998 14.09,71.569998 14.09,71.569998 z"
       id="path61" />
    <path
       class="cls-8"
       d="m 276.2135,93.650822 c 1.66,-0.28 25,-13.44 29,-16.31 4.63,-3.35 10.26,-1.48 10,4 -0.26,5.48 -16.88,34.649998 -23.24,39.339998"
       id="path63" />
    <path
       class="cls-7"
       d="m 276.0335,92.550822 c 7,-4.65 17,-11.21 24,-15.69 l 2.89,-1.94 c 6.7,-5.54 16.81,-1.86 15.53,7.54 -0.81,3.84 -2.66,7.27 -4.38,10.68 a 146.85,146.85 0 0 1 -9.2,15.219998 c -3.6,5 -6.86,10 -12,13.71 a 1.66,1.66 0 0 1 -2.31,-0.47 1.68,1.68 0 0 1 0.33,-2.22 c 4.84,-5.54 8.31,-12.61 12,-19 3.18,-6.189998 6.91,-12.429998 8.86,-19.099998 0.32,-2.72 -2.67,-2.59 -4.52,-1.31 -0.32,0.22 -1,0.64 -1.3,0.84 -2.56,1.56 -5.16,2.94 -7.77,4.35 a 193.7,193.7 0 0 1 -18.68,8.63 21.32,21.32 0 0 1 -3.14,1 1.06,1.06 0 0 1 -0.76,-1.93 l 0.4,-0.26 z"
       id="path65" />
    <path
       class="cls-2"
       d="m 250.3835,440.26082 -47.25,9.67 -4.14,2.76 c 0,0 5,13.26 11.32,15.47 6.32,2.21 39.51,4.15 39.51,4.15 0,0 -12.43,16 -13.81,22.1 -1.38,6.1 -4.7,22.66 0,26 4.7,3.34 48.9,-19.06 50.29,-18 1.39,1.06 0.55,34 9.39,42.28 8.84,8.28 13.82,11.32 22.66,-4.42 8.84,-15.74 10.57,-19.14 12.78,-19.76 2.21,-0.62 9.67,2.69 12,7.46 2.33,4.77 31.86,39.67 36.46,47.96 4.6,8.29 28.6,54.43 19.89,115.91 -8.71,61.48 -147.4,131.65 -147.4,131.65 l -16.31,72.53 c 0,0 63.69,-34.54 115.91,-27.35 52.22,7.19 187.89,-122.4 187.89,-122.4 l 42,-82.34 c 0,0 -6.35,-39.51 3.73,-49.32 0,0 12,16.16 17.83,14.64 5.83,-1.52 -1.25,-23.62 -1.25,-23.62 0,0 -20.72,-56 -17,-58.3 0,0 17.27,4.28 20.31,-6.49 0,0 -52.22,-46.28 -42.28,-67.42 0,0 30.12,23.62 33.57,21.83 3.45,-1.79 9,-18.65 -17.13,-60 l 5.53,-1 c 0,0 17.54,5.39 20,-1.1 2.46,-6.49 -23.62,-32.47 -44.21,-41.17 -20.59,-8.7 -310.29,48.28 -310.29,48.28 z"
       id="path67" />
    <g
       class="cls-12"
       clip-path="url(#clip-path-2)"
       id="g87"
       transform="translate(-294.4465,-38.799178)">
      <path
         class="cls-8"
         d="m 514.91,865.12 -37.3,69.62 14.51,2.49 c 0,0 94.91,21.55 96.56,21.14 1.65,-0.41 54.3,-58.85 55.54,-58.85 1.24,0 111.49,-49.74 111.49,-49.74 l 62.17,-150.86 -8.81,-11.5 c 0,0 -51,94.92 -127.25,119.49 -5.07,1.63 -8.73,-148.19 -36.08,-165 -11.34,-7 9,180.92 -2.35,185.53 -80.82,32.7 -128.48,37.68 -128.48,37.68 z"
         transform="translate(43.04,-2.27)"
         id="path69" />
      <path
         class="cls-8"
         d="M 590.76,471.8 570,502.89 c 0,0 23.77,17.75 53.68,22.58 11.55,1.87 47,6.84 98.43,-5.18 51.43,-12.02 72.53,-38.4 72.53,-38.4 0,0 51.11,23.76 71,87.31 l 36.74,-162.05 -40.2,-20.31 -96.57,15.33 -175.31,68"
         transform="translate(43.04,-2.27)"
         id="path71" />
      <path
         class="cls-8"
         d="m 707.42,701.2 c 0,0 -6.42,16.58 3.11,20.31 9.53,3.73 25.91,2.9 42.28,-22.59 0,0 6.63,20.93 26.52,0 19.89,-20.93 3.11,-60.09 3.11,-60.09 0,0 9.56,11.39 21.14,5.17 11.58,-6.22 1.45,-78.33 -42.28,-83.72 l 26.7,32.54 4,21.76 -6,9.33 -29.84,-6 12.64,40.61 -2.07,19.69 -8.26,1.79 -17.89,-15.68 -7.05,30.47 -12.43,11.38 z"
         transform="translate(43.04,-2.27)"
         id="path73" />
      <path
         class="cls-8"
         d="m 826.79,645.25 c 0,0 -15.55,37.72 5.59,63 L 849,697.47 839,659.76 Z"
         transform="translate(43.04,-2.27)"
         id="path75" />
      <path
         class="cls-8"
         d="m 817.67,583.08 17.82,7.92 36.26,58.43 -4.87,30.26 c 0,0 -40.3,-30.69 -49.21,-96.61 z"
         transform="translate(43.04,-2.27)"
         id="path77" />
      <path
         class="cls-8"
         d="m 808.34,513.66 c -5.75,54.55 45.28,77 45.28,77 L 870.93,575.17 863.05,557 Z"
         transform="translate(43.04,-2.27)"
         id="path79" />
      <path
         class="cls-8"
         d="m 593.8,563.4 -13.54,1.1 -21.55,29.57 c 0,0 -5.84,-29.37 17,-41.35 a 35.3,35.3 0 0 1 17.2,-3.93 z"
         transform="translate(43.04,-2.27)"
         id="path81" />
      <path
         class="cls-8"
         d="m 539.92,540.88 -41.31,21.83 -13,-2.63 c 0,0 27.23,-25.42 54.31,-19.2 z"
         transform="translate(43.04,-2.27)"
         id="path83" />
      <path
         class="cls-8"
         d="m 507.24,508.1 -21.34,8.32 -26.8,-7.18 -6.43,-16.65 c 0,0 10.23,14.96 54.57,15.51 z"
         transform="translate(43.04,-2.27)"
         id="path85" />
    </g>
    <path
       class="cls-4"
       d="m 154.9235,362.61082 -13.68,11.88 -7.46,-15.56 -2.9,-15 3.31,-34.4 8.29,-6.22 12,-2.07 14.51,-7.88 19.48,-2.9 1.24,-22.79 3.11,-39.53 15.68,-26 33.43,-35.22 37.72,-21.14 39.81,-12.48 43.82,-0.33 44.85,10.32 27.35,10.36 26.11,18.28 21.14,18.24 23.21,28.18 14.92,27.77 12.43,31.49 5,23.63 -1.66,17 18.66,5.39 -9.55,18.3 -22,20.73 17.82,-0.83 26.52,-2.9 13.27,2.48 -2.49,8.71 -24.87,33.15 -22.79,12.85 -30.26,9.53 -11.19,1.66 -12,14.09 -22,15.34 -41,14.09 c 0,0 -34.82,2.49 -36.06,2.9 -1.24,0.41 -36.47,-5.8 -36.47,-5.8 l -51,-14.51 -34.4,-11.6 -15.23,-8.34 -16.17,-10.36 -4.14,9.53 -5.29,-1 -16.68,-17 -2,2.49 -1.14,17 -4.76,-3.42 -23.94,-29 -3.21,-36.89 z"
       id="path89" />
    <g
       class="cls-13"
       clip-path="url(#clip-path-3)"
       id="g105"
       transform="translate(-294.4465,-38.799178)">
      <path
         class="cls-14"
         d="m 492.74,434.71 c 0,0 34,-0.83 37.92,0.83 3.92,1.66 46.63,12.22 56.16,-11.81 l -8,-1.11 -20.45,6.63 -36.76,-8.25 -34.47,0.28 -20.51,11.6 -7.46,-15.75 -6.63,-6.63 -10.23,-2.5 -3.86,14.09 -19.62,15.19 27.08,37 5.38,-30.28 12.44,6.64 z"
         transform="translate(43.04,-2.27)"
         id="path91" />
      <path
         class="cls-14"
         d="m 483.72,463.82 c 0,0 114.77,37.41 167.28,30.18 52.51,-7.23 79,-36.19 83.72,-38.68 4.72,-2.49 64.14,-19 110.83,-66.24 l -18.27,50.49 -91.18,68.8 c 0,0 -78.47,42.83 -84,42.83 -5.53,0 -90.9,-5.8 -96.7,-12.43 -5.8,-6.63 -47,-29 -47,-29 l -28.74,-27.63 -1.1,-20.44"
         transform="translate(43.04,-2.27)"
         id="path93" />
      <path
         class="cls-14"
         d="m 685.53,222.16 60.47,22.94 59.13,59.4 -10.74,55.5 -32.88,8 c 0,0 3,-61.61 -24.31,-108.58 0,0 -50,5 -51.67,-37.31"
         transform="translate(43.04,-2.27)"
         id="path95" />
      <path
         class="cls-14"
         d="m 766.76,407 c 0,0 6.77,-16.63 26,-45.43 l 22,-6.22 v 16.85 l -7.74,14.36 z"
         transform="translate(43.04,-2.27)"
         id="path97" />
      <path
         class="cls-14"
         d="m 619.77,209.73 47.52,-10.53 a 5.88,5.88 0 0 1 5.88,2.08 l 4.51,5.7 a 5.86,5.86 0 0 1 -2.58,9.15 c -12.45,4.5 -38,10.57 -55.33,-6.4"
         transform="translate(43.04,-2.27)"
         id="path99" />
      <path
         class="cls-14"
         d="m 552.83,219.19 c 0,0 32.4,-15.54 38.2,-14.43 0,0 9.67,9.32 -9.12,18.44 -18.79,9.12 -29.42,-3.2 -29.42,-3.2"
         transform="translate(43.04,-2.27)"
         id="path101" />
      <path
         class="cls-14"
         d="m 524.72,229.56 9,5 a 6.75,6.75 0 0 1 2.84,8.77 c -2.38,5.08 -6.61,12 -12.79,14.49 -10.22,4.14 -16.57,-0.56 -16.57,-0.56 l 17.4,-25.14"
         transform="translate(43.04,-2.27)"
         id="path103" />
    </g>
    <path
       class="cls-2"
       d="m -62.946501,397.16082 c -0.27,-1 -16.58,-25.56 -21.27,-31.36 -4.69,-5.8 -32.999999,-30.53 -42.279999,-22.24 -9.28,8.29 1.45,16.92 1.45,16.92 0,0 -67.9,2.56 -70.52,5.6 -2.62,3.04 -1.66,12.16 1.93,16.58 3.59,4.42 49.46,22.38 50,23.48 0.54,1.1 -9.12,13.4 -5.39,17.41 3.73,4.01 29.43,2.62 38.82,1.1 9.39,-1.52 46.569999,-10.72 46.569999,-10.72 z"
       id="path107" />
    <g
       class="cls-15"
       clip-path="url(#clip-path-4)"
       id="g111"
       transform="translate(-294.4465,-38.799178)">
      <path
         class="cls-8"
         d="m 47,398.72 c 0,0 26.24,31.22 74.6,35.92 48.36,4.7 59.13,5.25 59.13,5.25 l 26,17.13 c 0,0 -82.89,66.59 -86.76,66.86 -3.87,0.27 -61.06,-38.4 -61.06,-38.4 l -7.74,-34.81 c 0,0 -13.26,-31.5 -11.33,-34.54 1.93,-3.04 7.16,-17.41 7.16,-17.41 z"
         transform="translate(43.04,-2.27)"
         id="path109" />
    </g>
    <path
       class="cls-4"
       d="m -114.8865,385.76082 -3.59,4.22 3,5.25 35.639999,10.77 37.85,17.69 23.58,19.89 12.4299999,22.93 8.29,25.35 -17.4099999,17.48 -153.949999,91.73 c 0,0 -40.61,28.46 -48.9,55.54 -8.29,27.08 -18.46,66.59 23.76,114.39 42.22,47.8 145.889999,80.4 145.889999,80.4 0,0 69.62,8.57 85.1,4.42 15.48,-4.15 16.85,0.28 16.85,0.28 l 19.07,25.14 c 0,0 19.06,17.41 28.730001,19.34 9.67,1.93 35.64,-0.55 48.35,-7.46 0,0 28.74,23.21 39,24.59 10.26,1.38 22.38,1.11 29,-3.87 6.62,-4.98 21.28,-19.61 21.28,-19.61 l 25.14,-36.75 21.28,-30.12 27.9,24.87 27.36,37.58 c 0,0 2.21,27.07 5.8,32.6 a 37,37 0 0 0 6.63,8 l 26.53,-19.62 3.86,-0.55 c 0,0 11.33,15.75 20.45,17.13 9.12,1.38 23.21,1.66 24.59,0.28 1.38,-1.38 -0.27,-22.11 -0.27,-22.11 l 5.8,-0.82 c 0,0 28.18,-1.39 30.67,-4.15 a 45.23,45.23 0 0 0 4.69,-6.63 l 32.33,5.25 5.25,-5 -3.31,-8.57 5.24,-3.31 27.91,2.48 a 34,34 0 0 0 14.92,-9.12 c 6.91,-7.18 41.17,-43.93 41.17,-43.93 0,0 23.49,-23.21 34.54,-25.14 11.05,-1.93 47,-14.64 47,-14.64 l -5.59,-9.03 -28.46,-8.84 3,-2.21 26,-5.25 -1.11,-5.25 -19.89,-11.06 -20.73,-1.65 14.1,-14.92 8.84,-5 -2.49,-5.52 -24.87,1.93 -21.25,8.77 -2.21,-7.18 2.76,-19.07 c 0,0 -10,-27.63 -18.51,-34 -8.51,-6.37 -21,-14.09 -21,-14.09 l -31.5,60.51 c 0,0 -29.84,45.31 -42.83,58 -12.99,12.69 -66,51.12 -66,51.12 0,0 -9.67,-31.5 -9.67,-33.71 0,-2.21 -12.16,-75.43 -12.16,-83.45 0,-8.02 2.21,-68 0.83,-80.12 -1.38,-12.12 -15.75,-53.33 -26.8,-65.21 -11.05,-11.88 -30.67,-40.06 -31.5,-43.1 -0.83,-3.04 -12.16,-3.87 -12.16,-3.87 0,0 -18.54,30.17 -20.47,30.17 -1.93,0 -11.33,0.82 -11.33,0.82 l -8.84,-23.48 -2.77,-26.25 c 0,0 -33.7,16.86 -39.78,18.79 -6.08,1.93 -13.27,0.55 -13.54,-1.93 -0.27,-2.48 -0.55,-16.86 -0.55,-16.86 l -12.44,10.81 -23.76,48.63 -8.57,1.65 -28.18,21.82 -11.6,12.16 c 0,0 -15.48,-16.58 -23.21,-19.9 -7.73,-3.32 -21.55,-14.92 -45.870001,-1.1 -24.32,13.82 -51.11,61.89 -57.19,78.75 -6.08,16.86 -8.84,48.09 -8.84,48.09 l -3.6,5.53 c 0,0 -70.45,-5.8 -94.49,-24 -30.549999,-23.18 -31.999999,-22 3.32,-57.47 25.32,-25.4 101.67,-95.88 101.67,-95.88 0,0 19.62,-35.09 -3.31,-72.39 -22.9300001,-37.3 -63.83,-58.62 -96.42,-64.7 -32.589999,-6.08 -36.469999,-7.26 -36.469999,-7.26"
       id="path113" />
    <g
       class="cls-16"
       clip-path="url(#clip-path-5)"
       id="g141"
       transform="translate(-294.4465,-38.799178)">
      <polyline
         class="cls-17"
         points="869.48 708.67 917.7 719.03 981.11 760.89 987.74 872.8 952.1 913.41 837.71 929.99 824.45 924.6 821.55 915.07 789.22 891.86 821.55 829.28 846.41 774.16 860.92 735.2 865.89 714.48 869.48 708.67 869.48 708.67"
         id="polyline115" />
      <path
         class="cls-14"
         d="m 737.26,936.61 -24,-35 c 0,0 48,-89 55.88,-115.36 l -2,-1.31 -48.29,55.74 -37.95,26.09 -6.7,3.6 4.21,17.13 17.59,28.59 27.14,19.48 14.3,1.87 z"
         transform="translate(43.04,-2.27)"
         id="path117" />
      <path
         class="cls-14"
         d="m 240.13,746.58 25.7,2.08 -1.25,19.06 c 0,0 1.25,64.24 10.36,77.92 9.11,13.68 26.11,44.36 26.11,44.36 l -3.73,4.15 c 0,0 -66.32,7.85 -106.51,-6.65 C 150.62,873 71.59,853.79 30.14,770.9 c -41.45,-82.89 0.69,-1.94 0.69,-1.94 0,0 42.48,36.68 158.53,59.04 0,0 24.66,8.08 50.77,-81.44"
         transform="translate(43.04,-2.27)"
         id="path119" />
      <path
         class="cls-14"
         d="m 422.21,668.11 c 0,0 9.79,-14.78 26.79,-20.17 l 6.65,36.06 11.6,31.91 18.24,40.62 9.94,29 -38.13,52.23 -0.83,-16.16 7.46,-17.82 0.83,-37.72 -3.31,-27.77 -12.85,-28.59 -22.8,-34.82"
         transform="translate(43.04,-2.27)"
         id="path121" />
      <path
         class="cls-14"
         d="m 572.07,749.32 c 2,-0.1 9,-0.3 12.45,1.55 a 1.33,1.33 0 0 1 0.23,2.15 c -3.35,3.08 -13.1,12.34 -18.1,20.61 a 1.34,1.34 0 0 1 -1,0.65 l -17.8,1.65 a 1.34,1.34 0 0 1 -1.06,-2.3 l 24.42,-23.93 a 1.33,1.33 0 0 1 0.86,-0.38 z"
         transform="translate(43.04,-2.27)"
         id="path123" />
      <path
         class="cls-14"
         d="m 605.27,793.54 c 1.19,1.16 4.53,4.68 5.53,8.74 a 1.38,1.38 0 0 1 -1.26,1.71 l -16.15,0.74 a 1.28,1.28 0 0 1 -0.55,-0.09 L 579,799.39 a 1.36,1.36 0 0 1 0.08,-2.58 l 10,-3.06 a 1.13,1.13 0 0 1 0.36,-0.06 l 14.86,-0.53 a 1.34,1.34 0 0 1 0.97,0.38 z"
         transform="translate(43.04,-2.27)"
         id="path125" />
      <path
         class="cls-14"
         d="m 608.85,823.53 c 0,0 5.36,3.47 6.64,7.93 a 1.73,1.73 0 0 1 -1.46,2.2 c -7,0.87 -26,4.1 -37.09,23.44 9.12,8.15 35.92,64.11 39.24,66.32 3.32,2.21 23.71,1.91 61.44,-11.33 a 0.49,0.49 0 0 1 0.56,0.77 c -4.5,5.69 -24.44,27.52 -63.07,23.85 0,0 -11.51,23.59 -7.09,31.88 l -4.83,0.83 c 0,0 -10.5,-22.93 -10.5,-23.49 0,-0.56 -0.55,-15 -0.55,-15 L 565.47,894.59 536.32,869 559.26,840.68 593.93,822 Z"
         transform="translate(43.04,-2.27)"
         id="path127" />
      <path
         class="cls-14"
         d="m 276.6,849.78 43.93,67.28 c 0,0 28.47,25.42 29.57,24.59 1.1,-0.83 26,15.47 26,15.47 l 89,11.06 54.15,-75.71 c 0,0 -45,52.77 -68.79,51.39 -23.79,-1.38 -34.54,-22.1 -34.54,-22.1 0,0 5.1,-16.41 -7.46,-11.19 -26.94,11.19 -62.93,6.49 -122.89,-60.37"
         transform="translate(43.04,-2.27)"
         id="path129" />
      <path
         class="cls-14"
         d="m 177.55,460.06 c 1.66,-0.28 8.84,-42.69 8.84,-42.69 l 13.54,20.63 -10.22,21.27 z"
         transform="translate(43.04,-2.27)"
         id="path131" />
      <path
         class="cls-18"
         d="m 433.68,409.63 24.59,2.63 5.66,19.06 30.12,-9.94 32.33,3 35.36,3.31 19.35,-1.1 9.11,-7.19 c 0,0 1.39,3 -0.55,7.46 -1.94,4.46 -16.85,15.75 -27.35,15.2 -10.5,-0.55 -30.67,-6.36 -35.09,-8.29 -4.42,-1.93 -31.22,-3.87 -35.65,-1.66 -4.43,2.21 -24.86,11.06 -24.86,11.06 l -0.56,37 -40.34,5.53 -9.94,-32.06 5.8,-18.23 18.51,-17.13 0.83,-4.42 -7.32,-4.29"
         transform="translate(43.04,-2.27)"
         id="path133" />
      <path
         class="cls-14"
         d="m 301.05,676.54 22.42,0.77 A 1.54,1.54 0 0 1 325,679 l -7.19,81.88 a 1.45,1.45 0 0 1 -1.59,1.31 L 266,756.94 265.8,693.53 Z"
         transform="translate(43.04,-2.27)"
         id="path135" />
      <polygon
         class="cls-14"
         points="305.97,807.11 335.81,810.01 332.29,853.73 306.8,850.21 "
         id="polygon137" />
      <path
         class="cls-14"
         d="m 458.41,929.91 c 0,0 -11.26,-5.11 -9.12,-13.61 2.14,-8.5 41.45,-78.54 71.63,-93.8 l -11.6,1.17 -40.21,35.23 -28.8,46.83 -1,16.79 4.56,6.21 8.91,2.91 z"
         transform="translate(43.04,-2.27)"
         id="path139" />
    </g>
    <g
       id="OL"
       transform="translate(-294.4465,-38.799178)">
      <path
         class="cls-11"
         d="m 419.38,441.89 c 0,0 21.62,30.6 28,32.12 l 1.79,-20.44 c 0,0 19.07,20 22.38,21.27 l 5.41,-11.53"
         transform="translate(43.04,-2.27)"
         id="path143" />
      <path
         class="cls-7"
         d="m 479.1,460.92 a 30.41,30.41 0 0 0 4.67,3.92 c 12.78,8.77 27.34,14.33 42,19.12 22.76,7.44 45.64,14.63 68.82,20.61 7.9,1.93 15.7,4 23.73,4.83 3.7,0.23 7.41,0.43 11.06,0.53 41.19,1.63 83.16,-13.08 110,-45.21 a 3.24,3.24 0 0 1 2,-1.1 c 3.58,-0.56 7.34,-1.38 11,-2.28 20.67,-5.28 41.49,-13.9 56.45,-29.5 5.47,-5.87 21.88,-22.18 21.67,-29.51 V 402 a 4.1,4.1 0 0 0 0.06,0.49 2.79,2.79 0 0 0 1.09,1.68 c 0,0 0,0 0,0 a 10.78,10.78 0 0 0 -1.48,-0.45 86.93,86.93 0 0 0 -16.48,-1.58 c -11.15,-0.1 -22.48,0.82 -33,4.47 a 37.29,37.29 0 0 0 -9.42,4.79 3.24,3.24 0 0 1 -4.19,-4.93 c 3.53,-3.51 7,-7.11 10.49,-10.73 6.89,-7.16 13.76,-14.48 20,-22.16 2.33,-3.07 5.06,-6.18 6.26,-9.73 0,-0.08 0,-0.07 0,0.15 a 1.77,1.77 0 0 0 0.74,1 h -0.06 c -3.84,-2.19 -8.34,-2.68 -12.75,-2.7 -14.68,0.33 -28.7,6.62 -41.45,13.59 a 1.7441617,1.7441617 0 0 1 -1.78,-3 c 15.1,-9.41 32.84,-18.25 51.2,-15.67 9.5,1.83 13.12,4.57 7.28,13.81 a 149.79,149.79 0 0 1 -14.37,18.15 c -6.78,7.57 -13.79,14.81 -21.05,21.91 l -4.19,-4.93 c 6.79,-4.88 14.72,-7.21 22.72,-8.72 a 126.13,126.13 0 0 1 35.45,-1.05 34.36,34.36 0 0 1 8.71,1.87 4.45,4.45 0 0 1 2.25,2 c 2.75,7.75 -8.46,19.78 -13.16,25.41 -5.18,5.83 -10.37,11.72 -16.37,16.85 -18.41,15.17 -41.41,23.36 -64.65,27.52 l 2,-1.1 a 133.59,133.59 0 0 1 -27.48,24.5 C 688,513 652,518.76 617.8,515.81 c -14.43,-1.75 -28.28,-6.12 -42.17,-10 -17.33,-5.12 -34.49,-10.69 -51.59,-16.49 -14.34,-5.09 -36.94,-12.62 -46.1,-24.88 a 13.56,13.56 0 0 1 -1.3,-2.32 1.31,1.31 0 0 1 0.71,-1.71 1.55,1.55 0 0 1 1.75,0.56 z"
         transform="translate(43.04,-2.27)"
         id="path145" />
      <path
         class="cls-11"
         d="m 430.78,329.65 c 0,0 1.48,-64.07 41.17,-103.34 C 511.64,187.04 554.56,163 646,179.06 737.44,195.12 796.32,307 787.76,358.93"
         transform="translate(43.04,-2.27)"
         id="path147" />
      <g
         id="mane">
        <path
           class="cls-11"
           d="m 503.93,479.61 c -0.83,0 -28.11,12.5 -46.63,11.12 -18.52,-1.38 4.42,35.92 49.46,20.45 0,0 -21.55,12.43 -21.83,39.51 -0.28,27.08 32.05,-1.11 53.88,-7.46"
           transform="translate(43.04,-2.27)"
           id="path149" />
        <path
           class="cls-7"
           d="m 542.05,543.34 c 0.44,12.54 1.26,25.92 5.85,37.66 1.63,3.73 5.3,10.49 10.05,7.59 5,-3.34 8.19,-9.12 11.93,-14.1 a 86.61,86.61 0 0 1 8.51,-10.66 c 3.36,-3.43 8.39,-6.75 13.52,-5.52 a 1.8001736,1.8001736 0 0 1 -0.6,3.55 C 578,560.92 571,593.08 557,595.56 c -16.22,1.65 -20.2,-27.09 -21.07,-38.75 -0.31,-4.52 -0.51,-8.95 -0.38,-13.56 a 3.2403125,3.2403125 0 0 1 6.48,0.09 z"
           transform="translate(43.04,-2.27)"
           id="path151" />
        <path
           class="cls-7"
           d="m 716.87,677.42 c -3.23,5.28 -10.84,17.32 -7.15,23 2.58,3.16 7.69,2.88 10.95,0.49 11.17,-7.94 16,-24.56 18.28,-37.67 a 3.26,3.26 0 0 1 5.9,-1.41 89.16,89.16 0 0 0 7.26,9.15 c 2,2.21 5.17,5.37 7.79,6 2.59,0.27 4.22,-2.51 5.06,-5 2.2,-6.93 1,-15.1 -0.51,-22.3 -2.61,-11.62 -7.15,-22.71 -12.22,-33.53 a 3.24,3.24 0 0 1 4.47,-4.24 c 3.91,1.91 8,3.79 12,5.36 4.2,1.46 9,3.58 13.26,3.13 a 8.57,8.57 0 0 0 5.13,-5.18 c 5.09,-15 -9.57,-33.21 -19.17,-43.83 -3,-3.26 -6.16,-6.42 -9.34,-9.6 a 1.9334942,1.9334942 0 0 1 2.44,-3 c 11.39,7.81 21.84,17.83 28.67,30.11 3.51,6.49 6.15,13.65 5.93,21.2 0,7.08 -3.92,14.86 -11.11,17.23 -8.38,2.51 -23.46,-5.74 -30.94,-9.77 v 0 l 4.47,-4.24 c 6.94,15 13.4,30.75 14.51,47.48 a 36.38,36.38 0 0 1 -1.49,13.23 c -1.71,5.87 -7.68,11.44 -14.26,8.72 -3.77,-1.49 -6.83,-4.58 -9.5,-7.42 a 92.53,92.53 0 0 1 -7.86,-9.9 l 5.91,-1.4 a 80.68,80.68 0 0 1 -5.73,23.25 c -4.23,9.45 -10.7,19.95 -21.8,22.23 a 14.13,14.13 0 0 1 -12.28,-3.83 c -5.71,-6 -2.31,-15 1.46,-21 a 54.33,54.33 0 0 1 7.38,-9.4 1.6,1.6 0 0 1 2.45,2 z"
           transform="translate(43.04,-2.27)"
           id="path153" />
        <path
           class="cls-11"
           d="m 812.42,434 c 0,0 45.8,24.93 44.14,38.06 -1.66,13.13 -32.19,-1.52 -32.19,-1.52"
           transform="translate(43.04,-2.27)"
           id="path155" />
        <path
           class="cls-7"
           d="m 812.4,453.75 a 229,229 0 0 1 31,39 c 6.24,9.85 12.24,20 13.05,32.08 a 22.64,22.64 0 0 1 -1.33,9.94 c -3,7.37 -11.23,5.64 -16.48,2.32 -9.25,-5.35 -16.43,-13.92 -26.1,-18.29 a 2.6,2.6 0 0 0 1.21,-0.25 2.66,2.66 0 0 0 1.39,-1.68 c 0,-0.07 0,0 0,0.17 a 26.46,26.46 0 0 0 2,6.58 137.85,137.85 0 0 0 7.22,14.38 c 4.71,8 9.44,16.19 15.73,23 5,5.13 10.88,8.15 15.8,13.72 3.89,4.24 3.71,10.67 0.52,15.49 -2,3.16 -6,4.88 -9.53,5 -4.62,0.29 -9.14,-1 -13.3,-2.43 a 95.27,95.27 0 0 1 -15.3,-7.21 2.32,2.32 0 0 1 2.07,-4.14 c 7.43,3.08 21.32,9.74 28.81,6.64 1.92,-0.94 2.61,-2.92 2.89,-5 0.6,-3.7 -4.22,-6.54 -7,-8.9 -3.9,-2.93 -8.12,-6 -11.49,-9.75 -6.08,-7 -11,-14.77 -15.67,-22.65 a 146.39,146.39 0 0 1 -7.83,-15 c -1.24,-3.09 -2.37,-5.52 -2.72,-9.16 -0.35,-2.89 1.45,-6.34 4.86,-6.59 2.11,-0.16 3.3,0.47 5,1.19 a 54.47,54.47 0 0 1 9.41,6 c 6.19,4.46 12.26,10.58 19.16,13.45 a 3.23,3.23 0 0 0 2.06,0.25 1.41,1.41 0 0 0 -0.39,0.29 c 3.28,-8.39 -1.92,-20.5 -6.4,-28.22 -4,-7 -8.57,-13.93 -13,-20.64 -6,-9.11 -12.14,-18.21 -17.89,-27.62 a 1.49,1.49 0 0 1 2.31,-1.85 z"
           transform="translate(43.04,-2.27)"
           id="path157" />
        <path
           class="cls-7"
           d="m 837.77,590.19 a 332.19,332.19 0 0 0 11.49,36.37 c 4.91,12.13 9.59,24.42 11.81,37.43 1,5.72 -3.64,11.08 -9.55,9.75 a 12.19,12.19 0 0 1 -4.79,-2.75 c -7.9,-7.06 -14.1,-15.47 -20.31,-24 a 1.94,1.94 0 0 1 3.07,-2.35 c 3.23,3.94 6.57,7.86 10,11.67 A 100.86,100.86 0 0 0 850,667 a 9.41,9.41 0 0 0 2.63,1.63 2.71,2.71 0 0 0 3.12,-3.17 c -0.65,-5 -2.39,-10.26 -3.91,-15.18 -3,-9.82 -7.45,-19.08 -11.08,-28.7 -3.62,-9.79 -6.57,-19.67 -9.29,-29.75 a 3.25,3.25 0 0 1 6.29,-1.61 z"
           transform="translate(43.04,-2.27)"
           id="path159" />
        <path
           class="cls-7"
           d="m 838,657.88 c -2.35,7.41 -2,15.7 -1.69,23.55 0.32,6 1.18,12.71 2.08,18.72 a 10.68,10.68 0 0 1 -2.63,8.7 c -3.57,4.13 -10,4.3 -14.41,1.6 -4.72,-3 -7.26,-7.91 -9.76,-12.55 a 154.73,154.73 0 0 1 -9.36,-24.25 2.34,2.34 0 0 1 4.46,-1.4 149.66,149.66 0 0 0 10,22.91 c 1.87,3.24 4.13,6.91 6.93,9.13 2,1.58 5.36,1.88 7,0 a 3.83,3.83 0 0 0 1,-3.12 l -0.88,-6.38 a 148.41,148.41 0 0 1 -1.22,-26.08 c 0.39,-4.68 0.81,-9.44 2.74,-13.81 a 3.24,3.24 0 0 1 5.74,3 z"
           transform="translate(43.04,-2.27)"
           id="path161" />
        <path
           class="cls-11"
           d="m 814.25,698.51 c 0,0 -20.25,39.78 -35.13,65.69 C 755.6,805 708.25,857.66 672.2,871.33"
           transform="translate(43.04,-2.27)"
           id="path163" />
      </g>
      <path
         class="cls-7"
         d="m 618,922.44 c 17.07,-2.05 34.22,-4.26 50.42,-10.32 a 1.78,1.78 0 0 1 1.83,3 c -7.11,6 -16.23,9 -25.22,10.75 a 89.5,89.5 0 0 1 -27.14,0.89 2.16,2.16 0 0 1 0.11,-4.3 z"
         transform="translate(43.04,-2.27)"
         id="path166" />
      <path
         class="cls-7"
         d="m 595,550.86 a 38,38 0 0 0 7.31,23.82 c 4.33,5.51 9.28,10.54 13.52,16.15 17.55,22.47 33.13,48.29 37.39,77 2.76,20.22 3,40.84 1.93,61.14 -0.28,6.5 -1.15,16 -0.8,22.29 2.46,24.41 6.55,48.88 10.89,73.06 3,15.76 6.1,31.61 10.47,47 1.8,6.07 3.56,12.11 6.69,17.55 4.28,7.15 8.59,14.47 14,20.79 a 15.51,15.51 0 0 0 1.51,1.52 l -0.16,-0.1 c 7.75,6.46 15.48,12.94 21.83,21 4.08,5.19 2.05,9.64 -3.52,12.35 -6.52,3.06 -13.15,3.75 -20.06,4.23 a 118.57,118.57 0 0 1 -19.78,-0.72 l 3.53,-3.94 c 0.72,3.23 1.31,6.38 1.8,9.63 0.55,4.39 1.39,9.23 0.29,13.84 -1.55,6.5 -13.19,6.19 -18.31,5.68 -13.84,-1.34 -26.27,-10.54 -32.49,-22.76 l 5,0.88 c -4.86,4.35 -9.76,8.56 -14.85,12.66 -4.25,3.25 -8.21,6.75 -13.28,9 -4.52,1.89 -9,-1.95 -11.14,-5.28 -6.5,-10.13 -7.77,-22.6 -8.42,-34.23 l 0.3,1.24 a 175.34,175.34 0 0 0 -22.94,-34.38 165.1,165.1 0 0 0 -30.4,-28.28 3.2431042,3.2431042 0 0 1 3.85,-5.22 166,166 0 0 1 16.69,13.67 186.9,186.9 0 0 1 27.75,32.76 q 3,4.47 5.74,9.1 c 1.83,3.13 3.55,6.2 5.19,9.58 a 3.05,3.05 0 0 1 0.3,1.24 c 0.43,9.25 1.51,18.64 5.2,27.07 1.18,2.52 2.86,5.73 5.33,6.7 a 21.88,21.88 0 0 0 4.25,-2.44 260.43,260.43 0 0 0 22.08,-18.07 3.25,3.25 0 0 1 5,0.88 38.19,38.19 0 0 0 11.35,13.24 c 7.44,5.28 18.88,8.27 27.59,5.07 v 0 c 0,0 -0.11,0.11 -0.16,0.19 -0.05,0.08 0,0 0,0 a 8.57,8.57 0 0 0 0.33,-2.36 c 0,-5.82 -1.22,-12.26 -2.44,-18.06 a 3.23,3.23 0 0 1 2.43,-3.89 3.41,3.41 0 0 1 1.1,-0.06 c 9.27,1 18.68,1.19 27.82,-0.46 3.7,-0.82 7.87,-1.6 10.39,-4 a 0.91,0.91 0 0 0 0,0.4 0.28,0.28 0 0 0 0,0.13 c 0,0 0,0.11 0,0.06 0,-0.05 0,0 -0.06,-0.15 a 9.54,9.54 0 0 0 -0.9,-1.45 c -5.36,-6.9 -15.33,-15.2 -20.52,-19.51 -3.23,-2.8 -5.66,-6.38 -8.11,-9.79 -2.92,-4.22 -5.66,-8.6 -8.27,-13 A 48.94,48.94 0 0 1 673,885 c -4.38,-11.58 -7.07,-23.6 -9.74,-35.58 -6.66,-31.84 -12.07,-63.79 -15.57,-96.16 a 86.58,86.58 0 0 1 0,-12.58 c 1.75,-25.85 2.49,-52.21 -1.88,-77.78 -6.5,-30.26 -24.56,-56.57 -44.35,-79.9 a 40.06,40.06 0 0 1 -10.76,-29.5 26.92,26.92 0 0 1 0.4,-3.3 2,2 0 0 1 3.89,0.62 z"
         transform="translate(43.04,-2.27)"
         id="path168" />
      <path
         class="cls-11"
         d="m 485.9,540.81 c 0,0 -28.6,23.83 -36.68,63.2 -8.08,39.37 8.29,98.23 21.35,122.68 13.06,24.45 22.65,54 22.65,56.92"
         transform="translate(43.04,-2.27)"
         id="path170" />
      <path
         class="cls-11"
         d="m 485.28,938.68 c 0,0 55.53,-29.84 92.84,-25.69"
         transform="translate(43.04,-2.27)"
         id="path172" />
      <path
         class="cls-11"
         d="m 449,599.87 c 0,0 -26.52,9.39 -48.9,38.13"
         transform="translate(43.04,-2.27)"
         id="path174" />
      <path
         class="cls-7"
         d="m 720.14,930.63 c 9.19,1.81 18.55,3.89 27.81,4.84 1.94,0.07 3.57,0.47 5.06,-0.23 0.58,-0.36 0.82,-0.5 1,-1.06 0.06,-1.46 -0.81,-2.84 -1.82,-4.3 a 46.41,46.41 0 0 0 -6.08,-6.48 c -4.54,-4.17 -9.58,-8 -14.48,-12.21 a 1.24,1.24 0 0 1 1.28,-2.08 c 8.76,3.62 34,17.63 26.42,29.59 a 9.73,9.73 0 0 1 -5.47,3.62 23.55,23.55 0 0 1 -6.42,0.21 141.11,141.11 0 0 1 -19.44,-3.26 c -3.15,-0.72 -6.27,-1.46 -9.41,-2.34 a 3.2415621,3.2415621 0 0 1 1.53,-6.3 z"
         transform="translate(43.04,-2.27)"
         id="path176" />
      <path
         class="cls-7"
         d="m 711.37,899.2 a 225.87,225.87 0 0 1 24.87,-6.46 54.14,54.14 0 0 1 8.87,-1 3.25,3.25 0 1 1 -0.08,6.49 c -8.07,-0.06 -16.52,1.35 -24.56,2.64 -2.77,0.48 -5.55,0.95 -8.3,1.48 a 1.62,1.62 0 0 1 -0.8,-3.12 z"
         transform="translate(43.04,-2.27)"
         id="path178" />
      <path
         class="cls-11"
         d="m 753.77,924.38 c 0,0 22.25,2.63 24,1.25 1.75,-1.38 1.38,-8 -2.62,-10.92 -4,-2.92 -29.84,-20.58 -29.84,-20.58 0,0 32.78,-59.27 55.3,-112.13 9.73,-22.88 19.06,-54 22.79,-72.11"
         transform="translate(43.04,-2.27)"
         id="path180" />
      <g
         id="OL_leg_2"
         data-name="OL leg 2">
        <path
           class="cls-11"
           d="m 823.4,711.08 c 0,0 6.36,-2.63 14.78,7.46 8.42,10.09 20.52,33.47 11.4,57"
           transform="translate(43.04,-2.27)"
           id="path182" />
        <path
           class="cls-7"
           d="m 772.39,836.18 a 4.16,4.16 0 0 1 1.29,-1.76 l 1.34,-1.24 c 1,-0.94 4.23,-3.78 5.33,-4.77 16.62,-14.68 33.48,-29.18 50.92,-42.9 10.2,-7.86 20.52,-16.2 32.76,-20.85 9.25,-3.68 19.62,-6 29.75,-4.53 a 28.18,28.18 0 0 1 10.42,3.47 3.79,3.79 0 0 1 1.3,5.32 4.07,4.07 0 0 1 -0.83,0.92 c -3.24,2.57 -6.49,5.23 -9.7,7.89 -6.39,5.33 -12.74,10.77 -18.74,16.51 -2.82,2.78 -6,5.8 -8.08,9 a 1.94,1.94 0 0 1 -3.35,-1.95 c 4.46,-7.55 10.73,-13.42 16.65,-19.71 5.93,-6 12,-11.89 18.18,-17.67 l 0.46,6.23 c -4.73,-2.71 -10.6,-3.09 -16.05,-2.75 -8.78,0.65 -17.66,3.83 -25.55,7.87 -8,4.44 -15.47,10.24 -22.85,15.83 -18.6,14.41 -36.77,29.8 -54.5,45.32 l -1.76,1.59 -0.86,0.78 -0.42,0.38 -0.19,0.18 v 0 a 3,3 0 0 0 0.68,-1.16 3.2429192,3.2429192 0 0 1 -6.15,-2.06 z"
           transform="translate(43.04,-2.27)"
           id="path184" />
        <path
           class="cls-11"
           d="m 877,791.48 c 0,0 27.08,-6.08 45.18,15.89 L 887,814.83 c 0,0 33.43,4.83 39.1,17.68 0,0 -47.53,11.61 -62.86,23.07 -15.33,11.46 -51,49.31 -56.92,56.78 -7.11,9 -18,15.13 -26.94,12.09"
           transform="translate(43.04,-2.27)"
           id="path186" />
        <path
           class="cls-7"
           d="m 766.11,896 c 17.59,-24.64 53.6,-68.85 82.69,-77.48 a 1.9310425,1.9310425 0 0 1 1.14,3.69 55.19,55.19 0 0 0 -12.05,6.24 c -19.18,13.21 -34.54,31.23 -49.31,49.1 -5.9,7.25 -11.68,14.72 -17.2,22.23 A 3.2427342,3.2427342 0 0 1 766.11,896 Z"
           transform="translate(43.04,-2.27)"
           id="path188" />
      </g>
      <g
         id="OL_leg"
         data-name="OL leg">
        <path
           class="cls-11"
           d="m 453.21,838.8 c 0,0 -0.26,-11.19 6.37,-26.73 6.63,-15.54 9.53,-65.9 -13.26,-102.17 -22.79,-36.27 -46.21,-85.58 -82.06,-97.39 -35.85,-11.81 -72.26,40.81 -87.8,76.49 -9.46,21.69 -17.89,83.72 -9,132.21 8.89,48.49 56.37,101.75 68.8,110.66 12.43,8.91 31.71,18.24 64,1 0,0 17,14.92 26.31,19.89 9.31,4.97 25.49,14.92 48.08,-3.11 22.59,-18.03 62.58,-97.39 93.46,-115 30.88,-17.61 41.65,-11 41.65,-11 0,0 -5.7,-18.23 -32.64,-26.11"
           transform="translate(43.04,-2.27)"
           id="path191" />
        <path
           class="cls-7"
           d="m 563.79,805.3 c 7.09,-13.13 24.12,-16 37.69,-15.95 l -3.24,4.23 -0.1,-0.26 c -9,-18.93 -33.95,-18.22 -51.51,-13.75 a 3.2427458,3.2427458 0 0 1 -1.54,-6.3 c 19.43,-5 45.35,-5 57.27,14.11 a 22.26,22.26 0 0 1 2,4.22 3.23,3.23 0 0 1 -3.24,4.23 c -9.53,-0.81 -19.54,-0.28 -27.86,4.61 a 19,19 0 0 0 -6.65,6.31 1.61,1.61 0 0 1 -2.87,-1.45 z"
           transform="translate(43.04,-2.27)"
           id="path193" />
        <path
           class="cls-7"
           d="m 414.19,923.22 c -2.14,-11.05 -2,-22.43 2,-33.2 2.08,-5.24 5.5,-9.83 8.49,-14.53 3,-4.51 6,-9 9.07,-13.44 18.36,-26.68 37.21,-53 56.86,-78.71 5.4,-7 10.82,-14.05 16.8,-20.65 13.39,-13.45 31.49,-24.59 51.17,-23.32 a 42.81,42.81 0 0 1 16.78,5 3.47,3.47 0 0 1 0.76,5.65 c -9.89,8.8 -19.77,17.78 -29,27.29 -2.76,3 -6,6.14 -7.91,9.66 a 2.25,2.25 0 1 1 -4.18,-1.65 28.34,28.34 0 0 1 4,-6.21 c 4.2,-5.33 8.82,-10.27 13.46,-15.17 6.19,-6.48 12.49,-12.79 18.93,-19 l 0.76,5.65 c -20.82,-10.52 -44,2.48 -58.81,17.71 -5.72,6.41 -10.94,13.32 -16.23,20.14 -24.25,32.11 -48.29,64.52 -70.87,97.83 -4.41,6.34 -6.37,13.43 -7.84,21.14 -0.95,5.13 -1.59,10.43 -2.13,15.74 a 1.06,1.06 0 0 1 -1.17,1 1,1 0 0 1 -0.93,-0.83 z"
           transform="translate(43.04,-2.27)"
           id="path195" />
        <path
           class="cls-7"
           d="m 456.14,932.37 c -11.36,1.58 -20.59,-4.82 -20.57,-16.81 -0.16,-4.55 1.74,-8.77 3.41,-12.8 5.45,-12.14 12.55,-23.11 20.2,-33.71 a 213.53,213.53 0 0 1 25.72,-29.58 c 9.16,-8.34 21.51,-18.74 34.54,-18.84 a 1.39,1.39 0 0 1 0.09,2.77 20.6,20.6 0 0 0 -4.42,0.93 C 496.38,830.9 476.4,857 464.65,873 c -7.31,10.32 -14.41,21.07 -20,32.34 -1.38,2.93 -2.88,6.08 -3.38,9.18 a 16.3,16.3 0 0 0 0.83,7.09 c 1.88,5.38 8.49,7.4 13.77,7.2 a 1.79,1.79 0 0 1 0.31,3.55 z"
           transform="translate(43.04,-2.27)"
           id="path197" />
      </g>
      <path
         class="cls-11"
         d="m 188.32,439.27 c -0.2,-0.83 -20.72,-43.31 -47.86,-53 -27.14,-9.69 -14.1,15.33 -14.1,15.33 0,0 -68.17,-0.41 -72.11,8.29 -3.94,8.7 20.31,30.67 54.5,37.51 0,0 -10.36,12.43 -5.18,18.44 5.18,6.01 51.11,-1.24 83,-11"
         transform="translate(43.04,-2.27)"
         id="path200" />
      <path
         class="cls-11"
         d="M 300.85,893.51 C 181.28,915.47 44.14,831 27.1,760.05 c -13.67,-57 24.56,-94.73 49.32,-114 30.67,-23.83 145.27,-79.47 151.9,-85.48 6.63,-6.01 40.06,-24.56 16.23,-66 C 220.72,453.13 137.14,438.85 133,433.88 c -4.14,-4.97 2.7,-7.05 2.7,-7.05 0,0 87.86,11 120.81,54.92 32.95,43.92 25.49,76.47 7.49,97.19 -18,20.72 -107.92,95.67 -116.83,111.21 -8.91,15.54 -13.76,44.21 116.58,58.09"
         transform="translate(43.04,-2.27)"
         id="path202" />
    </g>
    <g
       id="tongue"
       transform="translate(-294.4465,-38.799178)">
      <polygon
         class="cls-5"
         points="438.59,445.5 449.37,444.25 467.19,433.06 481.9,418.76 487.91,409.65 460.14,403.22 437.76,425.19 420.56,434.51 422.43,439.69 "
         id="polygon205" />
      <g
         class="cls-19"
         clip-path="url(#clip-path-6)"
         id="g209">
        <path
           class="cls-20"
           d="m 403.7,414.75 32.47,16.3 23.21,-20.45 -18.52,-18.3 c 0,0 -46.28,6.35 -46.9,6.49 -0.62,0.14 9.74,15.96 9.74,15.96 z"
           transform="translate(43.04,-2.27)"
           id="path207" />
      </g>
      <polyline
         class="cls-5"
         points="414.28 450.47 403.92 454.48 382.92 448.81 377.12 445.5 390.52 446.05 403.5 443.43 414.28 450.47"
         id="polyline211" />
      <path
         class="cls-20"
         d="m 393.2,447.07 -2.62,4.29 -13.13,-0.28 -15.68,-5.39 -14.71,-18.51 -6.63,-17.13 6.91,8.29 19.34,15.33 c 0,0 10.77,4.56 10.77,5 0,0.44 15.75,8.4 15.75,8.4 z"
         transform="translate(43.04,-2.27)"
         id="path213" />
      <path
         class="cls-21"
         d="m 415.86,405.42 c 0.83,0.25 -23.43,31.43 -38.91,30.89 -15.05,-0.52 -28.79,-18.94 -37.49,-30.27 0,0 6.91,37.44 35.23,44.63 28.32,7.19 62.57,-24 72,-38.86 z"
         transform="translate(43.04,-2.27)"
         id="path215" />
      <path
         class="cls-21"
         d="m 361.77,445.69 c 0,0 -29.29,1.8 -38,-3.73 0,0 25.83,23.49 57.4,10.16 z"
         transform="translate(43.04,-2.27)"
         id="path217" />
      <path
         class="cls-22"
         d="m 432.5,409.43 c -0.53,3.28 -2.54,6.09 -4.59,8.59 -7.92,9.1 -18.76,14.83 -29.44,20 a 0.77,0.77 0 0 1 -0.75,-1.34 150.69,150.69 0 0 0 13.16,-9.1 c 5.3,-4.3 10.52,-9 13.82,-15 a 11.33,11.33 0 0 0 1.3,-3.58 3.25,3.25 0 0 1 6.48,0.42 z"
         transform="translate(43.04,-2.27)"
         id="path219" />
      <path
         class="cls-21"
         d="m 372.89,436 c 0,0 7.05,9.81 28.32,11.47"
         transform="translate(43.04,-2.27)"
         id="path221" />
    </g>
    <path
       class="cls-8"
       d="m 256.1835,214.67082 c 0,0 13.54,0.13 22.93,-18.52 0,0 -7.73,-10.08 -17.54,-7.87 -9.81,2.21 -7.6,20.72 -5.39,26.39 z"
       id="path224" />
    <g
       class="cls-23"
       clip-path="url(#clip-path-7)"
       id="g228"
       transform="translate(-294.4465,-38.799178)">
      <path
         class="cls-10"
         d="m 520,230.54 a 27.44,27.44 0 0 0 -5.08,23.57 c 2.17,9.31 -8.29,9 -8.29,9 l -9.53,-31.29 10.78,-16.58 13.88,5 z"
         transform="translate(43.04,-2.27)"
         id="path226" />
    </g>
    <path
       class="cls-11"
       d="m 256.1835,214.67082 c 0,0 13.54,0.13 22.93,-18.52 0,0 -7.73,-10.08 -17.54,-7.87 -9.81,2.21 -7.6,20.72 -5.39,26.39 z"
       id="path230" />
    <path
       class="cls-8"
       d="m 302.7435,177.09082 c 0,0 25.14,4.42 33,-12.57 0,0 -7.87,-13.27 -17.68,-12 -9.81,1.27 -15.32,24.57 -15.32,24.57 z"
       id="path232" />
    <g
       class="cls-24"
       clip-path="url(#clip-path-8)"
       id="g236"
       transform="translate(-294.4465,-38.799178)">
      <path
         class="cls-10"
         d="m 555.25,220.09 12.16,-1.66 a 34,34 0 0 1 10.77,-22.65 c 3,-2.76 -7,-8.15 -7,-8.15 l -12.57,10.22 -7.74,14.23 z"
         transform="translate(43.04,-2.27)"
         id="path234" />
    </g>
    <path
       class="cls-11"
       d="m 302.7435,177.09082 c 0,0 25.14,4.42 33,-12.57 0,0 -7.87,-13.27 -17.68,-12 -9.81,1.27 -15.32,24.57 -15.32,24.57 z"
       id="path238" />
    <path
       class="cls-8"
       d="m 357.3135,154.02082 c 0,0 5.11,13.54 14.64,16.71 9.53,3.17 37,4.58 47.25,-5.72 0,0 -4.15,-37.31 -14.92,-44 -9,-5.61 -15.12,-2.88 -20.52,0 -9.17,4.92 -26.45,33.01 -26.45,33.01 z"
       id="path240" />
    <g
       class="cls-25"
       clip-path="url(#clip-path-9)"
       id="g244"
       transform="translate(-294.4465,-38.799178)">
      <path
         class="cls-10"
         d="m 608.72,196.61 c 0,0 8.7,17 22.1,17.82 0,0 8.57,-40.07 29.15,-45.87 l -3.59,-17.68 -27.08,-5.25 -21,17.37 z"
         transform="translate(43.04,-2.27)"
         id="path242" />
    </g>
    <path
       class="cls-11"
       d="m 357.3135,154.02082 c 0,0 5.11,13.54 14.64,16.71 9.53,3.17 37,4.58 47.25,-5.72 0,0 -4.15,-37.31 -14.92,-44 -9,-5.61 -15.12,-2.88 -20.52,0 -9.17,4.92 -26.45,33.01 -26.45,33.01 z"
       id="path246" />
    <path
       class="cls-8"
       d="m 433.0135,180.82082 c 0,0 12.71,33.71 51.67,23.76 0,0 37.3,-31.77 44.48,-72.67 7.18,-40.899998 3.6,-66.859998 -1.38,-73.219998 -4.98,-6.36 -10.22,-1.65 -11.33,1.66 -1.11,3.31 -2.1,37.34 -27,70.999998 0,0 -13.22,-14.48 -16.78,-22.27 -2.8,-6.11 -8.41,-2.8 -9.33,3.21 a 66.09,66.09 0 0 0 7.5,41.13 c 0,0 -26.5,22.15 -37.83,27.4 z"
       id="path248" />
    <g
       class="cls-26"
       clip-path="url(#clip-path-10)"
       id="g252"
       transform="translate(-294.4465,-38.799178)">
      <path
         class="cls-10"
         d="m 785.55,98.8 c 0,0 -10.78,7.46 -10.78,14.5 0,7.04 -9.74,55.33 -31.81,62 0,0 -10.15,0.73 -8.8,-18.13 1.35,-18.86 -10.68,-6.94 -10.68,-6.94 0,0 -0.82,3.62 -0.51,11 0.31,7.38 12.33,31 11.81,34 -0.52,3 -28.39,49.21 -28.39,49.21 l -21.45,-0.72 -15,-30.67 c 0,0 28.08,-25.7 29.11,-30 1.03,-4.3 1.64,-55.05 1.64,-55.05 l 29.32,-10 29.32,-22.38 13,-9.12 z"
         transform="translate(43.04,-2.27)"
         id="path250" />
    </g>
    <path
       class="cls-11"
       d="m 433.0135,180.82082 c 0,0 12.71,33.71 51.67,23.76 0,0 37.3,-31.77 44.48,-72.67 7.18,-40.899998 3.6,-66.859998 -1.38,-73.219998 -4.98,-6.36 -10.22,-1.65 -11.33,1.66 -1.11,3.31 -2.1,37.34 -27,70.999998 0,0 -13.22,-14.48 -16.78,-22.27 -2.8,-6.11 -8.41,-2.8 -9.33,3.21 a 66.09,66.09 0 0 0 7.5,41.13 c 0,0 -26.5,22.15 -37.83,27.4 z"
       id="path254" />
    <path
       class="cls-27"
       d="m 177.8535,128.05082 c -10.69,-18.21 -26,-34.559998 -45.54,-48.579998 -38.130001,-27.37 -88.920001,-43.32 -143.000001,-44.89 -54.08,-1.57 -105.779999,11.35 -145.499999,36.47 -20.34,12.88 -36.62,28.28 -48.38,45.879998 -12.84,19.15 -19.7,39.91 -20.35,61.66 -0.65,21.75 4.93,42.88 16.6,62.78 10.69,18.21 26.01,34.56 45.54,48.56 31.26,22.44 70.999999,37.2 114.169999,42.65 l -47.8,338.35 c -0.4,2.85 -2.21,2 -5.119999,1.77 l -64.88,-6.67 c -2.82,-0.22 -12.88,103.72 -12.88,103.72 14.14,2.9 68.17,9.23 68.17,9.23 -3.12,19.47 -15.4,96.56 -15.4,108.59 0,14.15 54.389999,19.66 56.189999,7.63 2.2,-14.73 3,-21.57 3,-21.63 l 80.92,9.76 7.72,-60.2 -19.9100001,-2.32 1.19,-17.23 22.1200001,1.5 2.76,-40.77 -38.38,-4.47 4.4999999,-66.33 59.0800001,5.72 8.39,-74.59 -86.34,-9.46 a 5.47,5.47 0 0 1 -4.83,-6.15 l 38.5499999,-274.68 c 43.6700001,-2.84 84.5500001,-15.28 117.3000011,-36 20.35,-12.86 36.63,-28.28 48.39,-45.85 12.85,-19.18 19.7,-39.94 20.35,-61.69 v 0 c 0.63,-21.74 -4.96,-42.88 -16.63,-62.76 z m -295.26,610.43 -36,-2.34 2,-21.9 36.4,4.27 z m 238,-548.48 c -1.54,51.14 -55.810001,91.46 -138.750001,89.05 -82.939999,-2.41 -134.629999,-48.41 -133.089999,-99.55 1.5,-49.7 51.999999,-89.239998 131.899999,-89.239998 q 3.47,0 7,0.11 c 82.94,2.42 134.560001,48.489998 133.020001,99.629998 z"
       id="path256" />
    <g
       class="cls-28"
       clip-path="url(#clip-path-11)"
       id="g284"
       transform="translate(-294.4465,-38.799178)">
      <polygon
         class="cls-29"
         points="312.58,932.25 315.94,908.84 237.55,899.19 272.55,655.38 264.71,655.38 226.07,924.26 237.27,924.26 "
         id="polygon258" />
      <path
         class="cls-30"
         d="m 110.24,350.61 15.68,3.85 c 0,0 -72.65,-64.19 -68.18,-137.19 C 60.4,174 86.26,130.72 141.45,108 165.25,98.22 220.27,78.8 304.82,84.31 L 304.68,46.02 105.2,18.77 46.41,91.92 -1,158.45 l -42,93.81 42.79,60.33 z"
         transform="translate(43.04,-2.27)"
         id="path260" />
      <polyline
         class="cls-30"
         points="248.4 352.47 272.97 347.1 209.13 709.51 194.44 709.51 248.4 352.47"
         id="polyline262" />
      <polyline
         class="cls-30"
         points="177.64 816.96 194.86 818.2 178.48 941.35 160 935.97 150.34 913.24 177.64 816.96"
         id="polyline264" />
      <path
         class="cls-30"
         d="M 168.61,734.1 93.44,726.25 82.52,836.58 c 0,0 -44.09,-47.11 -44.09,-48.35 0,-1.24 42.41,-105.37 42.41,-105.37 l 47.46,-5.38 19.31,25.62 21.39,14.47 -0.42,16.53"
         transform="translate(43.04,-2.27)"
         id="path266" />
      <path
         class="cls-30"
         d="m 236.64,321.27 c 0,0 96.65,12.73 138.17,-36.37 20.71,-24.52 21.27,-64.6 16.8,-81.13 -4.06,-15 -27.16,-69.15 -132.57,-73.7 -61.3,-2.64 -22.4,191.2 -22.4,191.2 z"
         transform="translate(43.04,-2.27)"
         id="path268" />
      <polygon
         class="cls-30"
         points="272.13,643.81 262.89,654.97 264.15,669.43 360.32,681 369.98,643.4 308.24,628.52 "
         id="polygon270" />
      <polygon
         class="cls-30"
         points="286.93,787.31 282.73,799.71 281.47,809.62 346.14,816.24 338.58,791.85 "
         id="polygon272" />
      <polygon
         class="cls-30"
         points="335.12,869.03 294.67,861.45 293.44,874.67 330.08,878.53 "
         id="polygon274" />
      <path
         class="cls-29"
         d="m 195.28,318.24 c 0,0 -80.84,-7.24 -102.28,-65.09 -20.17,-54.54 21.57,-93.69 40.13,-105.15 17.53,-10.85 50.28,-24.48 103.93,-16.74 56.4,8.13 -41.78,186.98 -41.78,186.98 z"
         transform="translate(43.04,-2.27)"
         id="path276" />
      <path
         class="cls-29"
         d="m 234.12,347.27 c 0,0 17.33,-1.55 36.75,10.84 l -1.05,5.79 c 0,0 67,1.24 142.36,-54.24 L 344.85,373.06 267,381.88 221.11,662.33 178.27,956 142.43,948 249.66,358.18"
         transform="translate(43.04,-2.27)"
         id="path278" />
      <polygon
         class="cls-29"
         points="286.16,731.18 286.3,721.67 351.71,719.91 349.85,745.64 "
         id="polygon280" />
      <polygon
         class="cls-29"
         points="294.28,842.03 294.49,833.56 325.92,833.63 323.82,847.68 "
         id="polygon282" />
    </g>
    <path
       class="cls-31"
       d="m 177.8535,128.05082 c -10.69,-18.21 -26,-34.559998 -45.54,-48.579998 -38.130001,-27.37 -88.920001,-43.32 -143.000001,-44.89 -54.08,-1.57 -105.779999,11.35 -145.499999,36.47 -20.34,12.88 -36.62,28.28 -48.38,45.879998 -12.84,19.15 -19.7,39.91 -20.35,61.66 -0.65,21.75 4.93,42.88 16.6,62.78 10.69,18.21 26.01,34.56 45.54,48.56 31.26,22.44 70.999999,37.2 114.169999,42.65 l -47.8,338.35 c -0.4,2.85 -2.21,2 -5.119999,1.77 l -64.88,-6.67 c -2.82,-0.22 -12.88,103.72 -12.88,103.72 14.14,2.9 68.17,9.23 68.17,9.23 -3.12,19.47 -15.4,96.56 -15.4,108.59 0,14.15 54.389999,19.66 56.189999,7.63 2.2,-14.73 3,-21.57 3,-21.63 l 80.92,9.76 7.72,-60.2 -19.9100001,-2.32 1.19,-17.23 22.1200001,1.5 2.76,-40.77 -38.38,-4.47 4.4999999,-66.33 59.0800001,5.72 8.39,-74.59 -86.34,-9.46 a 5.47,5.47 0 0 1 -4.83,-6.15 l 38.5499999,-274.68 c 43.6700001,-2.84 84.5500001,-15.28 117.3000011,-36 20.35,-12.86 36.63,-28.28 48.39,-45.85 12.85,-19.18 19.7,-39.94 20.35,-61.69 v 0 c 0.63,-21.74 -4.96,-42.88 -16.63,-62.76 z m -295.26,610.43 -36,-2.34 2,-21.9 36.4,4.27 z m 238,-548.48 c -1.54,51.14 -55.810001,91.46 -138.750001,89.05 -82.939999,-2.41 -134.629999,-48.41 -133.089999,-99.55 1.5,-49.7 51.999999,-89.239998 131.899999,-89.239998 q 3.47,0 7,0.11 c 82.94,2.42 134.560001,48.489998 133.020001,99.629998 z"
       id="path286" />
    <path
       class="cls-11"
       d="m -63.086501,398.20082 c -0.2,-0.83 -20.72,-43.31 -47.859999,-53 -27.14,-9.69 -14.1,15.33 -14.1,15.33 0,0 -68.17,-0.41 -72.11,8.29 -3.94,8.7 20.31,30.67 54.5,37.51 0,0 -10.36,12.43 -5.18,18.44 5.18,6.01 51.109999,-1.24 82.999999,-11"
       id="path288" />
    <path
       class="cls-4"
       d="m -224.3065,718.98082 c -13.67,-57 24.56,-94.73 49.32,-114 30.67,-23.83 140.089999,-80.4 146.719999,-86.41 6.19,-5.61 43.31,-12.85 20.2399999,-56.51 l 2.72,-32.74 a 81.52,81.52 0 0 1 10.4,11.33 c 32.9500001,43.93 25.4900001,76.47 7.4600001,97.19 -18.0300001,20.72 -97.81,84.27 -106.72,99.81 l -68.799999,8.15 -18.65,13.29 z"
       id="path290" />
    <path
       class="cls-11"
       d="m -5.3065011,429.35082 a 81.52,81.52 0 0 1 10.4,11.33 c 32.9500001,43.93 25.4900001,76.47 7.4600001,97.19 -18.0300001,20.72 -108.03,95.87 -116.959999,111.42"
       id="path292" />
    <path
       class="cls-11"
       d="m -224.3065,718.98082 c -13.67,-57 24.56,-94.73 49.32,-114 30.67,-23.8 142.579999,-81.05 149.829999,-86.32 8.29,-6 39.78,-19.61 16.9999999,-56.36"
       id="path294" />
    <path
       class="cls-11"
       d="m -60.576501,414.12082 c -27.3,-12.8 -55.359999,-18.34 -57.839999,-21.31 -4.14,-5 2.7,-7.05 2.7,-7.05 a 303.46,303.46 0 0 1 57.399999,14.17"
       id="path296" />
    <path
       d="m 179.0735,289.71082 c 0,0.8 30.46,-1 30.46,-1 0,0 5,-46.21 -19.21,-53.08 0,0.03 -10.49,17.95 -11.25,54.08 z"
       id="path298" />
    <path
       class="cls-32"
       d="m 202.4135,261.14082 c 1.12,5.14 -0.94,6.79 -3.71,7.4 -2.77,0.61 -5.19,-0.07 -6.31,-5.21 -1.12,-5.14 0.21,-9.8 3,-10.41 2.79,-0.61 5.89,3.08 7.02,8.22 z"
       id="path300" />
    <g
       id="key_front"
       data-name="key front"
       transform="translate(-294.4465,-38.799178)">
      <line
         class="cls-33"
         x1="264.26999"
         y1="647.64001"
         x2="224.66"
         y2="929.65002"
         id="line302" />
      <polyline
         class="cls-34"
         points="193.77 711.49 214.93 713.65 199.73 818.92 166.02 815.74"
         id="polyline304" />
      <path
         class="cls-34"
         d="m 187.6,481.24 17.92,-127.56 c 0,0 26.53,-14.85 55.33,7.39 l -21,157"
         transform="translate(43.04,-2.27)"
         id="path306" />
    </g>
    <g
       id="eyes"
       transform="translate(-294.4465,-38.799178)">
      <path
         class="cls-35"
         d="m 543,311.89 c 0,0 -5.49,30.94 5.38,47.73 2.54,3.93 24.8,14.66 24.8,14.66 l 18.42,2 17.89,-3.86 17.11,-8.68 9.38,-8.94 0.82,-5.69 c 0,0 4.38,-20.32 1.66,-29 -2.72,-8.68 -23.35,-43.62 -23.35,-43.62 l -23.86,-6.32 -16.4,3.77 -11.62,10.26 -11,12.46 -4.23,5.42 z"
         transform="translate(43.04,-2.27)"
         id="path309" />
      <path
         d="m 642.88,322.29 c 2.76,29.61 -19.41,55.2 -42.21,52.74 -23.86,-2.57 -41.14,7 -43.21,-48 -1.12,-29.73 10.71,-61 45.75,-56.17 22.52,3.14 37.79,30.64 39.67,51.43 z"
         transform="translate(43.04,-2.27)"
         id="path311" />
      <path
         class="cls-32"
         d="m 624.51,300.18 c 3.79,7.62 0.63,11.31 -4.17,13.7 -4.8,2.39 -9.42,2.56 -13.21,-5.06 -3.79,-7.62 -3,-15.73 1.83,-18.12 4.83,-2.39 11.77,1.86 15.55,9.48 z"
         transform="translate(43.04,-2.27)"
         id="path313" />
      <path
         d="m 545.55,356.09 c 14.31,8.46 30.84,17.17 47.91,15.54 16.67,-2 32.54,-11.62 44.51,-23.24 a 2.76,2.76 0 0 1 4.26,3.46 59.66,59.66 0 0 1 -9.4,10.71 c -12.38,11.18 -28.72,19.29 -45.93,18.28 -16.66,-1.5 -31.87,-10.43 -43.78,-21.82 a 1.92,1.92 0 0 1 2.43,-2.93 z"
         transform="translate(43.04,-2.27)"
         id="path315" />
      <path
         d="m 538.24,324.58 c 4,-19.17 13.23,-39.92 29.1,-52.31 a 44,44 0 0 1 38.13,-7 c 25.94,7.62 35.71,36.86 37.36,61.25 a 151.94,151.94 0 0 1 -0.08,23.76 2.75,2.75 0 0 1 -5.49,0 c -2.43,-25 -7.29,-65 -35.07,-73.7 -23.3,-6 -38.58,10.93 -50.46,28.74 -4.16,6.34 -8,13 -11.65,19.87 a 1,1 0 0 1 -1.84,-0.6 z"
         transform="translate(43.04,-2.27)"
         id="path317" />
      <ellipse
         class="cls-32"
         cx="558.97998"
         cy="340.10999"
         rx="8.4300003"
         ry="3.9000001"
         transform="rotate(-47.42,577.91521,289.97304)"
         id="ellipse319" />
    </g>
    <g
       id="snoot"
       transform="translate(-294.4465,-38.799178)">
      <path
         class="cls-7"
         d="m 474.54,373.77 c -4.24,0.36 -9.6,1.2 -12.65,4.25 a 3.45,3.45 0 0 0 -1,2.38 4.50321,4.50321 0 1 1 -9,-0.34 11.63,11.63 0 0 1 5.53,-8 c 5.52,-3.14 11.53,-2.74 17.44,-1.75 a 1.77,1.77 0 0 1 -0.34,3.5 z"
         transform="translate(43.04,-2.27)"
         id="path322" />
      <path
         class="cls-7"
         d="m 398.34,356.91 c 5.77,3.79 10.5,10 9.91,17.25 -0.48,6 -9.2,5.58 -9.09,-0.44 0.1,-1.4 0.83,-2.43 0.76,-4 -0.06,-3.49 -2.16,-7 -4.4,-9.67 a 2.16,2.16 0 0 1 2.82,-3.19 z"
         transform="translate(43.04,-2.27)"
         id="path324" />
      <g
         id="snoot-2"
         data-name="snoot">
        <path
           class="cls-7"
           d="m 486.72,373.12 c -1.62,-8.82 -5.83,-17.51 -15.67,-18 -7.85,-0.48 -17.25,-0.22 -22.4,6.49 a 5.19,5.19 0 0 1 -4.73,1.25 c -0.33,-0.1 -0.8,-0.18 -1.12,-0.26 l -11.93,-2.75 c -2.57,-0.61 -13.2,-3 -15.63,-3.64 a 4.61,4.61 0 0 1 -2.95,-3.26 9.29,9.29 0 0 0 -2.15,-5.25 c -3.62,-4.17 -14.21,-5.14 -18.3,-1.37 -2.22,2 -3.41,5.57 -4.15,9.34 -1.38,7.82 -2.59,16 -3.19,23.9 a 48.67,48.67 0 0 0 0.23,11.46 9.69,9.69 0 0 0 0.75,2.32 c 2.88,6.38 6.39,12.55 9.84,18.66 l -4.35,-0.84 12.45,-10.6 a 3.36,3.36 0 0 1 2.88,-0.69 l 52.79,10.68 a 3.42,3.42 0 0 1 2.57,2.32 l 6.78,21.65 L 464,433 486.12,419.07 a 3,3 0 0 1 1.6,-0.46 c 13.1,-0.11 26.07,-0.19 39.15,1.36 a 48.32,48.32 0 0 1 9.89,2.38 101.06,101.06 0 0 0 27.57,2.93 44.77,44.77 0 0 0 5.75,-0.57 c 5.29,-1.2 10.16,-4.94 13.94,-8.81 3.92,-4.13 10.23,1.49 6.43,5.89 a 45.09,45.09 0 0 1 -11.65,8.55 c -4.14,2.26 -9.65,3.05 -14.28,3 a 114.14,114.14 0 0 1 -26.55,-3 c -4.21,-1 -7.63,-2.77 -12.12,-3.32 -12.51,-1.8 -25.42,-2.06 -38.08,-2.27 l 1.6,-0.46 -22.17,13.84 a 3,3 0 0 1 -4.15,-1 3.64,3.64 0 0 1 -0.3,-0.63 l -7.75,-21.31 2.65,2.34 -52.7,-10.75 2.87,-0.68 -13.17,9.69 -0.14,0.1 a 2.87,2.87 0 0 1 -4.21,-0.94 c -2,-3.59 -4,-7.18 -5.92,-10.83 -1.57,-3 -3.13,-6.05 -4.45,-9.21 -1.82,-5.1 -1.33,-10.49 -1.09,-15.7 0.43,-6.23 1.26,-12.33 2.18,-18.47 0.67,-4.21 1.17,-8.46 2.83,-12.58 2.85,-7.66 10,-10.71 17.78,-10 8,0.25 15.79,4.95 16.73,13.52 a 1.56,1.56 0 0 0 -1.18,-1.34 h 0.19 c 1.77,0.44 12.89,2.81 14.95,3.29 l 12,2.63 0.75,0.17 0.38,0.08 c 0.11,0 0,0 0,0 a 1.43,1.43 0 0 0 -1.25,0.45 c 0,0 -0.09,0.12 0,0 5.7,-7.4 15.42,-10.5 24.47,-10.34 8.81,-0.18 17.22,4.66 19.82,13.37 a 24.25,24.25 0 0 1 0.33,13.22 1.0031949,1.0031949 0 0 1 -2,-0.16 z"
           transform="translate(43.04,-2.27)"
           id="path326" />
      </g>
      <path
         class="cls-7"
         d="m 401.16,337.76 c 11.43,-4.06 23.13,-8 35.31,-8.87 12.07,-1.12 24.1,-2.11 36.22,-0.6 a 1.2622401,1.2622401 0 0 1 -0.27,2.51 c -11.73,-0.8 -23.72,0.85 -35.34,2.61 -11.74,1.56 -22.69,5.89 -33.57,10.4 a 3.25,3.25 0 1 1 -2.35,-6.05 z"
         transform="translate(43.04,-2.27)"
         id="path329" />
    </g>
  </g>
</svg>
